<svg xmlns="http://www.w3.org/2000/svg" viewBox="0 0 220 220" fill="none">
  <title>Tec-Deck</title>
  <defs>
    <linearGradient id="tdg" x1="34" y1="40" x2="190" y2="180" gradientUnits="userSpaceOnUse">
      <stop stop-color="#34D399"/>
      <stop offset="0.52" stop-color="#60A5FA"/>
      <stop offset="1" stop-color="#A7F3D0"/>
    </linearGradient>
    <mask id="cut">
      <rect width="220" height="220" fill="#fff"/>
      <path d="M48 138c34 12 78 12 124 0" stroke="#000" stroke-width="14" stroke-linecap="round"/>
      <path d="M52 112c32 18 84 18 116 0" stroke="#000" stroke-width="14" stroke-linecap="round"/>
      <path d="M56 86c30 22 86 22 108 0" stroke="#000" stroke-width="14" stroke-linecap="round"/>
    </mask>
  </defs>

  <rect x="26" y="26" width="168" height="168" rx="44" fill="rgba(255,255,255,0.06)" stroke="rgba(255,255,255,0.18)"/>
  <g mask="url(#cut)">
    <path d="M38 66c22-26 52-40 78-40s56 14 78 40" stroke="url(#tdg)" stroke-width="16" stroke-linecap="round"/>
    <path d="M30 110c28-40 64-60 86-60s58 20 86 60" stroke="url(#tdg)" stroke-width="16" stroke-linecap="round" opacity="0.8"/>
    <path d="M34 158c34-44 70-66 82-66s48 22 82 66" stroke="url(#tdg)" stroke-width="16" stroke-linecap="round" opacity="0.6"/>
  </g>

  <path d="M62 170c24-12 72-12 96 0" stroke="rgba(255,255,255,0.20)" stroke-width="2" stroke-linecap="round"/>
</svg>

